# xmcd
#
# Track frame offsets: 
#        150
#        21960
#        56439
#        82619
#        115917
#        137612
#        163308
#        187400
#        219483
#        240535
#        261497
#        286071
#        315237
#
# Disc length: 4627 seconds
#
# Revision: 2
# Processed by: cddbd v1.5.2PL0 Copyright (c) Steve Scherf et al.
# Submitted via: ExactAudioCopyFreeDBPlugin 1.0
#
DISCID=b412110d
DTITLE=Jesús Adrián Romero - Lo Mejor de Jesús Adrián Romero: Colecció
DTITLE=n Adoración
DYEAR=2003
DGENRE=Contemporary Christian
TTITLE0=Aleluya
TTITLE1=Tal Como Soy
TTITLE2=Este Día Especial
TTITLE3=Mi Jesús, Mi Amado
TTITLE4=Que Sería De Mi
TTITLE5=Sentado Es Su Trono
TTITLE6=Prefiero A Cristo
TTITLE7=Con Manos Vacías
TTITLE8=Esperar En Ti
TTITLE9=Cerca De Ti
TTITLE10=Sumérgeme
TTITLE11=A Sus Pies
TTITLE12=Enviame A Mi
EXTD=www.cristoesturuta.cl
EXTT0=
EXTT1=
EXTT2=
EXTT3=
EXTT4=
EXTT5=
EXTT6=
EXTT7=
EXTT8=
EXTT9=
EXTT10=
EXTT11=
EXTT12=
PLAYORDER=
